<?xml version="1.0" encoding="UTF-8"?>
<!DOCTYPE svg PUBLIC "-//W3C//DTD SVG 1.1//EN" "http://www.w3.org/Graphics/SVG/1.1/DTD/svg11.dtd">
<svg xmlns="http://www.w3.org/2000/svg" version="1.1" width="1640px" height="1616px" style="shape-rendering:geometricPrecision; text-rendering:geometricPrecision; image-rendering:optimizeQuality; fill-rule:evenodd; clip-rule:evenodd" xmlns:xlink="http://www.w3.org/1999/xlink">
<g><path style="opacity:1" fill="#fefefe" d="M -0.5,-0.5 C 546.167,-0.5 1092.83,-0.5 1639.5,-0.5C 1639.5,538.167 1639.5,1076.83 1639.5,1615.5C 1092.83,1615.5 546.167,1615.5 -0.5,1615.5C -0.5,1076.83 -0.5,538.167 -0.5,-0.5 Z"/></g>
<g><path style="opacity:1" fill="#e9e9e9" d="M 944.5,308.5 C 941.833,310.493 940.166,313.16 939.5,316.5C 837.5,316.5 735.5,316.5 633.5,316.5C 633.657,315.127 633.49,313.793 633,312.5C 631.624,311.295 630.458,309.962 629.5,308.5C 637.5,304.17 645.834,300.337 654.5,297C 679.053,288.361 703.72,280.028 728.5,272C 739.354,268.816 745.521,261.649 747,250.5C 747.667,240.833 747.667,231.167 747,221.5C 738.719,211.877 732.052,201.21 727,189.5C 725.045,188.547 723.378,187.213 722,185.5C 719.548,172.241 716.715,159.074 713.5,146C 712.932,142.737 714.266,141.237 717.5,141.5C 717.333,127.496 717.5,113.496 718,99.5C 723.362,68.8029 741.195,49.6362 771.5,42C 807.13,36.0698 833.964,48.5698 852,79.5C 853.535,83.7728 854.869,88.1062 856,92.5C 857.369,108.798 857.869,125.131 857.5,141.5C 860.95,141.573 862.283,143.406 861.5,147C 858.412,159.774 855.578,172.608 853,185.5C 851.758,186.872 850.258,187.872 848.5,188.5C 843.489,200.668 836.656,211.668 828,221.5C 827.333,231.167 827.333,240.833 828,250.5C 829.479,261.649 835.646,268.816 846.5,272C 873.959,281.03 901.292,290.363 928.5,300C 934.046,302.604 939.379,305.437 944.5,308.5 Z"/></g>
<g><path style="opacity:1" fill="#0f1b27" d="M 1142.5,258.5 C 1148.24,258.211 1153.91,258.711 1159.5,260C 1163.05,261.677 1164.38,264.51 1163.5,268.5C 1161.83,268.5 1160.17,268.5 1158.5,268.5C 1158.67,267.178 1158.34,266.011 1157.5,265C 1152.95,263.455 1148.29,263.121 1143.5,264C 1140.54,267.488 1141.21,270.155 1145.5,272C 1149.5,272.667 1153.5,273.333 1157.5,274C 1160.03,274.516 1162.2,275.683 1164,277.5C 1164.67,280.833 1164.67,284.167 1164,287.5C 1162.99,289.259 1161.49,290.426 1159.5,291C 1152.83,291.667 1146.17,291.667 1139.5,291C 1136.38,288.592 1135.05,285.426 1135.5,281.5C 1137.5,281.5 1139.5,281.5 1141.5,281.5C 1141.18,283.722 1141.84,285.556 1143.5,287C 1147.83,287.667 1152.17,287.667 1156.5,287C 1160.39,284.474 1160.39,281.808 1156.5,279C 1152.23,277.97 1147.89,277.303 1143.5,277C 1136.89,274.843 1134.72,270.343 1137,263.5C 1138.35,261.251 1140.18,259.584 1142.5,258.5 Z"/></g>
<g><path style="opacity:1" fill="#0f1b27" d="M 1217.5,258.5 C 1222.91,258.229 1228.25,258.729 1233.5,260C 1235.67,260.833 1237.17,262.333 1238,264.5C 1240.24,272.631 1239.91,280.631 1237,288.5C 1215.45,297.726 1206.11,290.726 1209,267.5C 1210.69,263.315 1213.52,260.315 1217.5,258.5 Z"/></g>
<g><path style="opacity:1" fill="#0b1824" d="M 1090.5,259.5 C 1093.5,259.5 1096.5,259.5 1099.5,259.5C 1099.5,270.167 1099.5,280.833 1099.5,291.5C 1097.83,291.5 1096.17,291.5 1094.5,291.5C 1094.83,282.475 1094.5,273.475 1093.5,264.5C 1089.52,267.984 1085.68,271.651 1082,275.5C 1081.33,273.167 1081.33,270.833 1082,268.5C 1085.04,265.631 1087.87,262.631 1090.5,259.5 Z"/></g>
<g><path style="opacity:1" fill="#14202c" d="M 1172.5,259.5 C 1174.5,259.5 1176.5,259.5 1178.5,259.5C 1178.5,263.833 1178.5,268.167 1178.5,272.5C 1184.17,272.5 1189.83,272.5 1195.5,272.5C 1195.5,268.167 1195.5,263.833 1195.5,259.5C 1197.5,259.5 1199.5,259.5 1201.5,259.5C 1201.5,270.167 1201.5,280.833 1201.5,291.5C 1199.5,291.5 1197.5,291.5 1195.5,291.5C 1195.5,286.833 1195.5,282.167 1195.5,277.5C 1189.83,277.5 1184.17,277.5 1178.5,277.5C 1178.5,282.167 1178.5,286.833 1178.5,291.5C 1176.5,291.5 1174.5,291.5 1172.5,291.5C 1172.5,280.833 1172.5,270.167 1172.5,259.5 Z"/></g>
<g><path style="opacity:1" fill="#091623" d="M 1248.5,259.5 C 1250.17,259.5 1251.83,259.5 1253.5,259.5C 1253.33,267.174 1253.5,274.841 1254,282.5C 1255.8,286.235 1258.8,287.902 1263,287.5C 1267.7,287.987 1270.7,285.987 1272,281.5C 1272.5,274.174 1272.67,266.841 1272.5,259.5C 1274.17,259.5 1275.83,259.5 1277.5,259.5C 1277.88,268.568 1277.38,277.568 1276,286.5C 1272.66,290.899 1268.16,292.566 1262.5,291.5C 1256.4,292.863 1251.9,290.863 1249,285.5C 1248.5,276.84 1248.33,268.173 1248.5,259.5 Z"/></g>
<g><path style="opacity:1" fill="#0c1925" d="M 1286.5,259.5 C 1288.5,259.5 1290.5,259.5 1292.5,259.5C 1292.5,268.5 1292.5,277.5 1292.5,286.5C 1298.17,286.5 1303.83,286.5 1309.5,286.5C 1309.5,288.167 1309.5,289.833 1309.5,291.5C 1301.83,291.5 1294.17,291.5 1286.5,291.5C 1286.5,280.833 1286.5,270.167 1286.5,259.5 Z"/></g>
<g><path style="opacity:1" fill="#0a1724" d="M 1317.5,259.5 C 1325.61,259.065 1333.61,259.565 1341.5,261C 1345.93,264.788 1347.59,269.622 1346.5,275.5C 1348.16,283.006 1345.5,288.173 1338.5,291C 1331.51,291.5 1324.51,291.666 1317.5,291.5C 1317.5,280.833 1317.5,270.167 1317.5,259.5 Z"/></g>
<g><path style="opacity:1" fill="#101c28" d="M 1354.5,259.5 C 1362.5,259.5 1370.5,259.5 1378.5,259.5C 1378.5,260.833 1378.5,262.167 1378.5,263.5C 1372.5,263.5 1366.5,263.5 1360.5,263.5C 1360.5,266.5 1360.5,269.5 1360.5,272.5C 1365.83,272.5 1371.17,272.5 1376.5,272.5C 1376.5,274.167 1376.5,275.833 1376.5,277.5C 1371.17,277.5 1365.83,277.5 1360.5,277.5C 1360.5,280.5 1360.5,283.5 1360.5,286.5C 1366.83,286.5 1373.17,286.5 1379.5,286.5C 1379.5,288.167 1379.5,289.833 1379.5,291.5C 1371.17,291.5 1362.83,291.5 1354.5,291.5C 1354.5,280.833 1354.5,270.167 1354.5,259.5 Z"/></g>
<g><path style="opacity:1" fill="#0c1825" d="M 1386.5,259.5 C 1393.84,259.334 1401.17,259.5 1408.5,260C 1410.85,260.346 1412.68,261.513 1414,263.5C 1416.09,270.35 1414.26,275.683 1408.5,279.5C 1410.21,283.75 1412.54,287.583 1415.5,291C 1413.1,291.814 1410.76,291.647 1408.5,290.5C 1406.5,287.167 1404.5,283.833 1402.5,280.5C 1399.23,279.513 1395.9,279.18 1392.5,279.5C 1392.5,283.5 1392.5,287.5 1392.5,291.5C 1390.5,291.5 1388.5,291.5 1386.5,291.5C 1386.5,280.833 1386.5,270.167 1386.5,259.5 Z"/></g>
<g><path style="opacity:1" fill="#101c28" d="M 1434.5,259.5 C 1436.6,259.201 1438.6,259.534 1440.5,260.5C 1442.7,269.237 1445.2,277.904 1448,286.5C 1450.66,277.525 1453.16,268.525 1455.5,259.5C 1458.17,259.5 1460.83,259.5 1463.5,259.5C 1465.24,268.318 1467.57,276.985 1470.5,285.5C 1473.57,277.348 1476.07,269.014 1478,260.5C 1479.7,259.594 1481.53,259.261 1483.5,259.5C 1480.5,270.157 1477.5,280.823 1474.5,291.5C 1471.75,291.813 1469.09,291.48 1466.5,290.5C 1464.15,281.445 1461.65,272.445 1459,263.5C 1456.51,272.802 1454.34,282.135 1452.5,291.5C 1449.5,291.5 1446.5,291.5 1443.5,291.5C 1440.9,280.709 1437.9,270.042 1434.5,259.5 Z"/></g>
<g><path style="opacity:1" fill="#101c28" d="M 1490.5,259.5 C 1492.5,259.5 1494.5,259.5 1496.5,259.5C 1496.5,270.167 1496.5,280.833 1496.5,291.5C 1494.5,291.5 1492.5,291.5 1490.5,291.5C 1490.5,280.833 1490.5,270.167 1490.5,259.5 Z"/></g>
<g><path style="opacity:1" fill="#0a1724" d="M 1505.5,259.5 C 1513.61,259.065 1521.61,259.565 1529.5,261C 1533.93,264.788 1535.59,269.622 1534.5,275.5C 1536.16,283.006 1533.5,288.173 1526.5,291C 1519.51,291.5 1512.51,291.666 1505.5,291.5C 1505.5,280.833 1505.5,270.167 1505.5,259.5 Z"/></g>
<g><path style="opacity:1" fill="#061421" d="M 1539.5,259.5 C 1549.5,259.5 1559.5,259.5 1569.5,259.5C 1569.5,260.833 1569.5,262.167 1569.5,263.5C 1565.17,263.5 1560.83,263.5 1556.5,263.5C 1556.5,272.833 1556.5,282.167 1556.5,291.5C 1554.83,291.5 1553.17,291.5 1551.5,291.5C 1551.5,282.5 1551.5,273.5 1551.5,264.5C 1547.7,263.517 1543.7,263.183 1539.5,263.5C 1539.5,262.167 1539.5,260.833 1539.5,259.5 Z"/></g>
<g><path style="opacity:1" fill="#14202c" d="M 1576.5,259.5 C 1578.5,259.5 1580.5,259.5 1582.5,259.5C 1582.5,263.833 1582.5,268.167 1582.5,272.5C 1588.17,272.5 1593.83,272.5 1599.5,272.5C 1599.5,268.167 1599.5,263.833 1599.5,259.5C 1601.5,259.5 1603.5,259.5 1605.5,259.5C 1605.5,270.167 1605.5,280.833 1605.5,291.5C 1603.5,291.5 1601.5,291.5 1599.5,291.5C 1599.5,286.833 1599.5,282.167 1599.5,277.5C 1593.83,277.5 1588.17,277.5 1582.5,277.5C 1582.5,282.167 1582.5,286.833 1582.5,291.5C 1580.5,291.5 1578.5,291.5 1576.5,291.5C 1576.5,280.833 1576.5,270.167 1576.5,259.5 Z"/></g>
<g><path style="opacity:1" fill="#48525b" d="M 1539.5,259.5 C 1539.5,260.833 1539.5,262.167 1539.5,263.5C 1543.7,263.183 1547.7,263.517 1551.5,264.5C 1547.17,264.5 1542.83,264.5 1538.5,264.5C 1538.22,262.585 1538.55,260.919 1539.5,259.5 Z"/></g>
<g><path style="opacity:1" fill="#f4f5f5" d="M 1219.5,263.5 C 1232.64,261.821 1237.48,267.488 1234,280.5C 1231.36,287.061 1226.53,289.227 1219.5,287C 1217.33,286.167 1215.83,284.667 1215,282.5C 1214.33,277.833 1214.33,273.167 1215,268.5C 1216.02,266.313 1217.52,264.646 1219.5,263.5 Z"/></g>
<g><path style="opacity:1" fill="#545d66" d="M 1332.5,264.5 C 1329.5,264.5 1326.5,264.5 1323.5,264.5C 1323.5,271.833 1323.5,279.167 1323.5,286.5C 1322.51,279.018 1322.17,271.352 1322.5,263.5C 1326.04,263.187 1329.38,263.521 1332.5,264.5 Z"/></g>
<g><path style="opacity:1" fill="#fafafb" d="M 1332.5,264.5 C 1336.81,263.735 1339.64,265.402 1341,269.5C 1343.93,284.07 1338.1,289.737 1323.5,286.5C 1323.5,279.167 1323.5,271.833 1323.5,264.5C 1326.5,264.5 1329.5,264.5 1332.5,264.5 Z"/></g>
<g><path style="opacity:1" fill="#656d75" d="M 1405.5,264.5 C 1401.17,264.5 1396.83,264.5 1392.5,264.5C 1392.5,267.833 1392.5,271.167 1392.5,274.5C 1396.83,274.5 1401.17,274.5 1405.5,274.5C 1401.03,275.486 1396.36,275.819 1391.5,275.5C 1391.5,271.5 1391.5,267.5 1391.5,263.5C 1396.36,263.181 1401.03,263.514 1405.5,264.5 Z"/></g>
<g><path style="opacity:1" fill="#fcfcfc" d="M 1405.5,264.5 C 1406.5,264.414 1407.33,264.748 1408,265.5C 1408.67,268.167 1408.67,270.833 1408,273.5C 1407.33,274.252 1406.5,274.586 1405.5,274.5C 1401.17,274.5 1396.83,274.5 1392.5,274.5C 1392.5,271.167 1392.5,267.833 1392.5,264.5C 1396.83,264.5 1401.17,264.5 1405.5,264.5 Z"/></g>
<g><path style="opacity:1" fill="#545d66" d="M 1520.5,264.5 C 1517.5,264.5 1514.5,264.5 1511.5,264.5C 1511.5,271.833 1511.5,279.167 1511.5,286.5C 1510.51,279.018 1510.17,271.352 1510.5,263.5C 1514.04,263.187 1517.38,263.521 1520.5,264.5 Z"/></g>
<g><path style="opacity:1" fill="#fafafb" d="M 1520.5,264.5 C 1524.81,263.735 1527.64,265.402 1529,269.5C 1531.93,284.07 1526.1,289.737 1511.5,286.5C 1511.5,279.167 1511.5,271.833 1511.5,264.5C 1514.5,264.5 1517.5,264.5 1520.5,264.5 Z"/></g>
<g><path style="opacity:1" fill="#798187" d="M 1569.5,263.5 C 1565.7,264.483 1561.7,264.817 1557.5,264.5C 1557.83,273.682 1557.49,282.682 1556.5,291.5C 1556.5,282.167 1556.5,272.833 1556.5,263.5C 1560.83,263.5 1565.17,263.5 1569.5,263.5 Z"/></g>
<g><path style="opacity:1" fill="#061421" d="M 1108.5,285.5 C 1110.5,285.5 1112.5,285.5 1114.5,285.5C 1114.5,287.5 1114.5,289.5 1114.5,291.5C 1112.5,291.5 1110.5,291.5 1108.5,291.5C 1108.5,289.5 1108.5,287.5 1108.5,285.5 Z"/></g>
<g><path style="opacity:1" fill="#c7537a" d="M 629.5,308.5 C 630.458,309.962 631.624,311.295 633,312.5C 633.49,313.793 633.657,315.127 633.5,316.5C 735.5,316.5 837.5,316.5 939.5,316.5C 940.166,313.16 941.833,310.493 944.5,308.5C 958.989,305.814 963.989,311.481 959.5,325.5C 950.712,332.105 944.045,330.438 939.5,320.5C 837.835,319.333 736.168,319.167 634.5,320C 633.686,322.627 632.353,324.96 630.5,327C 628,327.885 625.667,329.052 623.5,330.5C 607.504,478.599 591.838,626.766 576.5,775C 577.853,778.366 580.02,781.199 583,783.5C 585.853,796.647 580.687,801.813 567.5,799C 562.355,794.402 561.188,788.902 564,782.5C 566.43,779.786 569.43,778.119 573,777.5C 588.703,630.039 604.203,482.539 619.5,335C 619.167,332.833 618.833,330.667 618.5,328.5C 617.583,327.873 616.583,327.539 615.5,327.5C 609.312,319.801 610.312,313.301 618.5,308C 622.221,307.322 625.888,307.489 629.5,308.5 Z"/></g>
<g><path style="opacity:1" fill="#17222f" d="M 986.5,316.5 C 1194.5,316.5 1402.5,316.5 1610.5,316.5C 1610.5,317.833 1610.5,319.167 1610.5,320.5C 1402.5,320.5 1194.5,320.5 986.5,320.5C 986.5,319.167 986.5,317.833 986.5,316.5 Z"/></g>
<g><path style="opacity:1" fill="#e8e8e8" d="M 959.5,325.5 C 967.804,340.124 973.304,355.79 976,372.5C 977.402,409.922 979.902,447.255 983.5,484.5C 973.833,484.5 964.167,484.5 954.5,484.5C 954.5,485.833 954.5,487.167 954.5,488.5C 964.5,488.5 974.5,488.5 984.5,488.5C 987.512,519.929 991.345,551.263 996,582.5C 999.795,596.886 1003.8,611.22 1008,625.5C 1009,631.487 1009.83,637.487 1010.5,643.5C 1113.67,643.167 1216.67,643.501 1319.5,644.5C 1197.83,644.5 1076.17,644.5 954.5,644.5C 954.33,645.822 954.663,646.989 955.5,648C 973.83,648.5 992.164,648.667 1010.5,648.5C 1012.25,693.086 1013.42,737.753 1014,782.5C 1014.22,793.066 1015.05,803.566 1016.5,814C 1014.55,833.641 1015.38,853.141 1019,872.5C 1021.67,896.161 1016.33,917.828 1003,937.5C 992.61,948.281 980.444,956.447 966.5,962C 964.559,962.743 962.726,962.576 961,961.5C 960.146,957.375 960.48,953.375 962,949.5C 965.912,944.917 970.412,941.083 975.5,938C 977.617,936.269 979.117,934.102 980,931.5C 982.958,919.903 983.625,908.236 982,896.5C 979.232,889.011 975.898,888.677 972,895.5C 970.81,903.105 970.143,910.771 970,918.5C 968.891,922.719 967.225,926.719 965,930.5C 962.293,934.035 958.793,935.202 954.5,934C 952.973,931.243 952.307,928.243 952.5,925C 953.723,907.298 954.556,889.465 955,871.5C 956.483,864.864 958.817,858.531 962,852.5C 966.721,846.779 971.054,840.779 975,834.5C 978.256,824.062 979.256,813.396 978,802.5C 968.551,771.701 959.884,740.701 952,709.5C 942.32,639.407 931.987,569.407 921,499.5C 920.617,498.944 920.117,498.611 919.5,498.5C 926.84,495.142 929.34,489.475 927,481.5C 921.334,474.357 915,473.69 908,479.5C 906.441,481.217 905.608,483.217 905.5,485.5C 826.164,485.833 746.831,485.5 667.5,484.5C 663.358,475.252 657.024,473.252 648.5,478.5C 642.873,485.257 643.539,491.424 650.5,497C 652.134,497.494 653.801,497.66 655.5,497.5C 652.144,510.3 649.644,523.3 648,536.5C 640.017,597.318 631.017,657.985 621,718.5C 613.59,746.658 605.59,774.658 597,802.5C 596.006,812.617 596.672,822.617 599,832.5C 603.174,839.516 607.841,846.183 613,852.5C 616.097,858.557 618.43,864.891 620,871.5C 620.076,884.725 620.91,897.892 622.5,911C 622.187,917.791 622.02,924.625 622,931.5C 617.827,935.547 613.827,935.214 610,930.5C 607.739,926.05 606.072,921.383 605,916.5C 604.789,909.449 604.122,902.449 603,895.5C 600.334,889.475 597.334,889.141 594,894.5C 592.13,897.922 591.297,901.589 591.5,905.5C 592.223,913.511 593.057,921.511 594,929.5C 596.441,935.608 600.608,940.108 606.5,943C 609.372,945.537 611.872,948.37 614,951.5C 614.667,954.833 614.667,958.167 614,961.5C 611.162,962.675 608.329,962.509 605.5,961C 572.876,946.779 556.209,921.779 555.5,886C 556.381,874.16 557.548,862.326 559,850.5C 559.661,838.324 559.494,826.157 558.5,814C 558.515,810.097 559.015,806.264 560,802.5C 561.262,747.813 562.929,693.147 565,638.5C 567.858,622.542 571.858,606.875 577,591.5C 588.779,518.593 596.113,445.259 599,371.5C 601.035,361.66 603.701,351.993 607,342.5C 609.354,337.113 612.188,332.113 615.5,327.5C 616.583,327.539 617.583,327.873 618.5,328.5C 618.833,330.667 619.167,332.833 619.5,335C 604.203,482.539 588.703,630.039 573,777.5C 569.43,778.119 566.43,779.786 564,782.5C 561.188,788.902 562.355,794.402 567.5,799C 580.687,801.813 585.853,796.647 583,783.5C 580.02,781.199 577.853,778.366 576.5,775C 591.838,626.766 607.504,478.599 623.5,330.5C 625.667,329.052 628,327.885 630.5,327C 632.353,324.96 633.686,322.627 634.5,320C 736.168,319.167 837.835,319.333 939.5,320.5C 944.045,330.438 950.712,332.105 959.5,325.5 Z"/></g>
<g><path style="opacity:1" fill="#101c28" d="M 1088.5,455.5 C 1094.98,456.491 1101.65,456.824 1108.5,456.5C 1108.5,457.833 1108.5,459.167 1108.5,460.5C 1099.83,460.5 1091.17,460.5 1082.5,460.5C 1082.33,456.818 1082.5,453.152 1083,449.5C 1087.7,445.594 1093.2,443.427 1099.5,443C 1103.21,441.368 1104.38,438.535 1103,434.5C 1102.5,434 1102,433.5 1101.5,433C 1097.83,432.333 1094.17,432.333 1090.5,433C 1088.84,434.444 1088.18,436.278 1088.5,438.5C 1086.83,438.5 1085.17,438.5 1083.5,438.5C 1082.11,432.993 1084.11,429.493 1089.5,428C 1095.43,426.89 1101.09,427.556 1106.5,430C 1110.72,435.609 1110.38,440.942 1105.5,446C 1100.22,447.547 1094.88,448.88 1089.5,450C 1088.59,451.699 1088.26,453.533 1088.5,455.5 Z"/></g>
<g><path style="opacity:1" fill="#0f1b27" d="M 1151.5,427.5 C 1157.71,427.016 1163.71,427.849 1169.5,430C 1172.1,432.984 1173.1,436.484 1172.5,440.5C 1170.83,440.5 1169.17,440.5 1167.5,440.5C 1167.9,437.956 1167.23,435.789 1165.5,434C 1150.38,430.127 1144.88,435.96 1149,451.5C 1149.83,453.667 1151.33,455.167 1153.5,456C 1157.66,456.813 1161.66,456.313 1165.5,454.5C 1166.77,452.696 1167.43,450.696 1167.5,448.5C 1169.17,448.5 1170.83,448.5 1172.5,448.5C 1173.24,453.852 1171.24,457.686 1166.5,460C 1160.06,460.915 1153.72,460.581 1147.5,459C 1145.06,456.705 1143.56,453.872 1143,450.5C 1140.04,440.401 1142.88,432.734 1151.5,427.5 Z"/></g>
<g><path style="opacity:1" fill="#0f1b27" d="M 1256.5,427.5 C 1262.24,427.211 1267.91,427.711 1273.5,429C 1277.05,430.677 1278.38,433.51 1277.5,437.5C 1275.83,437.5 1274.17,437.5 1272.5,437.5C 1272.67,436.178 1272.34,435.011 1271.5,434C 1266.95,432.455 1262.29,432.121 1257.5,433C 1254.54,436.488 1255.21,439.155 1259.5,441C 1263.5,441.667 1267.5,442.333 1271.5,443C 1274.03,443.516 1276.2,444.683 1278,446.5C 1278.67,449.833 1278.67,453.167 1278,456.5C 1276.99,458.259 1275.49,459.426 1273.5,460C 1266.83,460.667 1260.17,460.667 1253.5,460C 1250.38,457.592 1249.05,454.426 1249.5,450.5C 1251.5,450.5 1253.5,450.5 1255.5,450.5C 1255.18,452.722 1255.84,454.556 1257.5,456C 1261.83,456.667 1266.17,456.667 1270.5,456C 1274.39,453.474 1274.39,450.808 1270.5,448C 1266.23,446.97 1261.89,446.303 1257.5,446C 1250.89,443.843 1248.72,439.343 1251,432.5C 1252.35,430.251 1254.18,428.584 1256.5,427.5 Z"/></g>
<g><path style="opacity:1" fill="#14202c" d="M 1181.5,428.5 C 1183.5,428.5 1185.5,428.5 1187.5,428.5C 1187.5,432.833 1187.5,437.167 1187.5,441.5C 1193.17,441.5 1198.83,441.5 1204.5,441.5C 1204.5,437.167 1204.5,432.833 1204.5,428.5C 1206.5,428.5 1208.5,428.5 1210.5,428.5C 1210.5,439.167 1210.5,449.833 1210.5,460.5C 1208.5,460.5 1206.5,460.5 1204.5,460.5C 1204.5,455.833 1204.5,451.167 1204.5,446.5C 1198.83,446.5 1193.17,446.5 1187.5,446.5C 1187.5,451.167 1187.5,455.833 1187.5,460.5C 1185.5,460.5 1183.5,460.5 1181.5,460.5C 1181.5,449.833 1181.5,439.167 1181.5,428.5 Z"/></g>
<g><path style="opacity:1" fill="#101c28" d="M 1219.5,428.5 C 1227.5,428.5 1235.5,428.5 1243.5,428.5C 1243.5,429.833 1243.5,431.167 1243.5,432.5C 1237.5,432.5 1231.5,432.5 1225.5,432.5C 1225.5,435.5 1225.5,438.5 1225.5,441.5C 1230.83,441.5 1236.17,441.5 1241.5,441.5C 1241.5,443.167 1241.5,444.833 1241.5,446.5C 1236.17,446.5 1230.83,446.5 1225.5,446.5C 1225.5,449.5 1225.5,452.5 1225.5,455.5C 1231.83,455.5 1238.17,455.5 1244.5,455.5C 1244.5,457.167 1244.5,458.833 1244.5,460.5C 1236.17,460.5 1227.83,460.5 1219.5,460.5C 1219.5,449.833 1219.5,439.167 1219.5,428.5 Z"/></g>
<g><path style="opacity:1" fill="#061421" d="M 1284.5,428.5 C 1294.5,428.5 1304.5,428.5 1314.5,428.5C 1314.5,429.833 1314.5,431.167 1314.5,432.5C 1310.17,432.5 1305.83,432.5 1301.5,432.5C 1301.5,441.833 1301.5,451.167 1301.5,460.5C 1299.83,460.5 1298.17,460.5 1296.5,460.5C 1296.5,451.5 1296.5,442.5 1296.5,433.5C 1292.7,432.517 1288.7,432.183 1284.5,432.5C 1284.5,431.167 1284.5,429.833 1284.5,428.5 Z"/></g>
<g><path style="opacity:1" fill="#48525b" d="M 1284.5,428.5 C 1284.5,429.833 1284.5,431.167 1284.5,432.5C 1288.7,432.183 1292.7,432.517 1296.5,433.5C 1292.17,433.5 1287.83,433.5 1283.5,433.5C 1283.22,431.585 1283.55,429.919 1284.5,428.5 Z"/></g>
<g><path style="opacity:1" fill="#798187" d="M 1314.5,432.5 C 1310.7,433.483 1306.7,433.817 1302.5,433.5C 1302.83,442.682 1302.49,451.682 1301.5,460.5C 1301.5,451.167 1301.5,441.833 1301.5,432.5C 1305.83,432.5 1310.17,432.5 1314.5,432.5 Z"/></g>
<g><path style="opacity:1" fill="#061421" d="M 1115.5,454.5 C 1117.5,454.5 1119.5,454.5 1121.5,454.5C 1121.5,456.5 1121.5,458.5 1121.5,460.5C 1119.5,460.5 1117.5,460.5 1115.5,460.5C 1115.5,458.5 1115.5,456.5 1115.5,454.5 Z"/></g>
<g><path style="opacity:1" fill="#49535c" d="M 1088.5,455.5 C 1095.5,455.5 1102.5,455.5 1109.5,455.5C 1109.78,457.415 1109.45,459.081 1108.5,460.5C 1108.5,459.167 1108.5,457.833 1108.5,456.5C 1101.65,456.824 1094.98,456.491 1088.5,455.5 Z"/></g>
<g><path style="opacity:1" fill="#c54f78" d="M 919.5,498.5 C 918.167,498.5 916.833,498.5 915.5,498.5C 910.388,497.222 907.055,494.055 905.5,489C 825.834,488.5 746.167,488.333 666.5,488.5C 665.697,494.302 662.364,497.302 656.5,497.5C 656.167,497.5 655.833,497.5 655.5,497.5C 653.801,497.66 652.134,497.494 650.5,497C 643.539,491.424 642.873,485.257 648.5,478.5C 657.024,473.252 663.358,475.252 667.5,484.5C 746.831,485.5 826.164,485.833 905.5,485.5C 905.608,483.217 906.441,481.217 908,479.5C 915,473.69 921.334,474.357 927,481.5C 929.34,489.475 926.84,495.142 919.5,498.5 Z"/></g>
<g><path style="opacity:1" fill="#061420" d="M 983.5,484.5 C 1096.5,484.5 1209.5,484.5 1322.5,484.5C 1322.5,485.833 1322.5,487.167 1322.5,488.5C 1209.83,488.5 1097.17,488.5 984.5,488.5C 974.5,488.5 964.5,488.5 954.5,488.5C 954.5,487.167 954.5,485.833 954.5,484.5C 964.167,484.5 973.833,484.5 983.5,484.5 Z"/></g>
<g><path style="opacity:1" fill="#e8e8e8" d="M 915.5,498.5 C 905.715,543.71 902.715,589.377 906.5,635.5C 900.879,635.649 896.879,638.316 894.5,643.5C 874.935,644.172 855.435,644.839 836,645.5C 783.903,644.558 731.736,643.891 679.5,643.5C 678.372,637.372 674.705,634.039 668.5,633.5C 671.672,588.418 668.672,543.752 659.5,499.5C 658.398,498.824 657.398,498.158 656.5,497.5C 662.364,497.302 665.697,494.302 666.5,488.5C 746.167,488.333 825.834,488.5 905.5,489C 907.055,494.055 910.388,497.222 915.5,498.5 Z"/></g>
<g><path style="opacity:1" fill="#0f1b27" d="M 93.5,497.5 C 99.2449,497.211 104.912,497.711 110.5,499C 114.051,500.677 115.384,503.51 114.5,507.5C 112.833,507.5 111.167,507.5 109.5,507.5C 109.67,506.178 109.337,505.011 108.5,504C 103.953,502.455 99.2867,502.121 94.5,503C 91.5385,506.488 92.2052,509.155 96.5,511C 100.5,511.667 104.5,512.333 108.5,513C 111.034,513.516 113.2,514.683 115,516.5C 115.667,519.833 115.667,523.167 115,526.5C 113.992,528.259 112.492,529.426 110.5,530C 103.833,530.667 97.1667,530.667 90.5,530C 87.3799,527.592 86.0466,524.426 86.5,520.5C 88.5,520.5 90.5,520.5 92.5,520.5C 92.178,522.722 92.8446,524.556 94.5,526C 98.8333,526.667 103.167,526.667 107.5,526C 111.386,523.474 111.386,520.808 107.5,518C 103.227,516.97 98.894,516.303 94.5,516C 87.8861,513.843 85.7194,509.343 88,502.5C 89.3516,500.251 91.1849,498.584 93.5,497.5 Z"/></g>
<g><path style="opacity:1" fill="#0d1926" d="M 426.5,518.5 C 423.038,517.518 419.371,517.185 415.5,517.5C 415.5,516.5 415.5,515.5 415.5,514.5C 420.833,514.5 426.167,514.5 431.5,514.5C 431.5,517.167 431.5,519.833 431.5,522.5C 431.046,526.244 429.046,528.744 425.5,530C 419.833,530.667 414.167,530.667 408.5,530C 406.714,529.215 405.214,528.049 404,526.5C 396.183,504.205 403.683,495.038 426.5,499C 430.875,500.701 432.542,503.867 431.5,508.5C 429.833,508.5 428.167,508.5 426.5,508.5C 426.607,506.097 425.607,504.264 423.5,503C 408.962,500.816 403.796,506.983 408,521.5C 408.833,523.667 410.333,525.167 412.5,526C 416.625,526.854 420.625,526.52 424.5,525C 426.229,523.211 426.896,521.044 426.5,518.5 Z"/></g>
<g><path style="opacity:1" fill="#0a1723" d="M 48.5,498.5 C 48.5,505.5 48.5,512.5 48.5,519.5C 50.1667,519.5 51.8333,519.5 53.5,519.5C 53.5,520.833 53.5,522.167 53.5,523.5C 51.8333,523.5 50.1667,523.5 48.5,523.5C 48.5,525.833 48.5,528.167 48.5,530.5C 46.8333,530.5 45.1667,530.5 43.5,530.5C 43.5,528.167 43.5,525.833 43.5,523.5C 37.5,523.5 31.5,523.5 25.5,523.5C 25.2475,520.68 25.7475,518.014 27,515.5C 31.0271,510.306 34.8605,504.973 38.5,499.5C 41.7683,498.513 45.1016,498.18 48.5,498.5 Z"/></g>
<g><path style="opacity:1" fill="#90979c" d="M 48.5,498.5 C 49.4907,504.979 49.824,511.646 49.5,518.5C 51.099,518.232 52.4324,518.566 53.5,519.5C 51.8333,519.5 50.1667,519.5 48.5,519.5C 48.5,512.5 48.5,505.5 48.5,498.5 Z"/></g>
<g><path style="opacity:1" fill="#0c1925" d="M 123.5,498.5 C 125.5,498.5 127.5,498.5 129.5,498.5C 129.5,507.5 129.5,516.5 129.5,525.5C 135.167,525.5 140.833,525.5 146.5,525.5C 146.5,527.167 146.5,528.833 146.5,530.5C 138.833,530.5 131.167,530.5 123.5,530.5C 123.5,519.833 123.5,509.167 123.5,498.5 Z"/></g>
<g><path style="opacity:1" fill="#101c28" d="M 154.5,498.5 C 162.5,498.5 170.5,498.5 178.5,498.5C 178.5,499.833 178.5,501.167 178.5,502.5C 172.5,502.5 166.5,502.5 160.5,502.5C 160.5,505.5 160.5,508.5 160.5,511.5C 165.833,511.5 171.167,511.5 176.5,511.5C 176.5,513.167 176.5,514.833 176.5,516.5C 171.167,516.5 165.833,516.5 160.5,516.5C 160.5,519.5 160.5,522.5 160.5,525.5C 166.833,525.5 173.167,525.5 179.5,525.5C 179.5,527.167 179.5,528.833 179.5,530.5C 171.167,530.5 162.833,530.5 154.5,530.5C 154.5,519.833 154.5,509.167 154.5,498.5 Z"/></g>
<g><path style="opacity:1" fill="#101c28" d="M 186.5,498.5 C 194.5,498.5 202.5,498.5 210.5,498.5C 210.5,499.833 210.5,501.167 210.5,502.5C 204.5,502.5 198.5,502.5 192.5,502.5C 192.5,505.5 192.5,508.5 192.5,511.5C 197.833,511.5 203.167,511.5 208.5,511.5C 208.5,513.167 208.5,514.833 208.5,516.5C 203.167,516.5 197.833,516.5 192.5,516.5C 192.5,519.5 192.5,522.5 192.5,525.5C 198.833,525.5 205.167,525.5 211.5,525.5C 211.5,527.167 211.5,528.833 211.5,530.5C 203.167,530.5 194.833,530.5 186.5,530.5C 186.5,519.833 186.5,509.167 186.5,498.5 Z"/></g>
<g><path style="opacity:1" fill="#0f1b27" d="M 216.5,498.5 C 218.792,498.244 220.959,498.577 223,499.5C 225.562,508.432 228.729,517.099 232.5,525.5C 236.033,516.901 239.366,508.234 242.5,499.5C 244.421,498.359 246.421,498.192 248.5,499C 244.279,508.995 240.445,519.161 237,529.5C 233.943,530.451 230.777,530.784 227.5,530.5C 224.232,519.696 220.565,509.029 216.5,498.5 Z"/></g>
<g><path style="opacity:1" fill="#101c28" d="M 255.5,498.5 C 263.5,498.5 271.5,498.5 279.5,498.5C 279.5,499.833 279.5,501.167 279.5,502.5C 273.5,502.5 267.5,502.5 261.5,502.5C 261.5,505.5 261.5,508.5 261.5,511.5C 266.833,511.5 272.167,511.5 277.5,511.5C 277.5,513.167 277.5,514.833 277.5,516.5C 272.167,516.5 266.833,516.5 261.5,516.5C 261.5,519.5 261.5,522.5 261.5,525.5C 267.833,525.5 274.167,525.5 280.5,525.5C 280.5,527.167 280.5,528.833 280.5,530.5C 272.167,530.5 263.833,530.5 255.5,530.5C 255.5,519.833 255.5,509.167 255.5,498.5 Z"/></g>
<g><path style="opacity:1" fill="#0c1925" d="M 301.5,498.5 C 303.5,498.5 305.5,498.5 307.5,498.5C 307.5,507.5 307.5,516.5 307.5,525.5C 313.167,525.5 318.833,525.5 324.5,525.5C 324.5,527.167 324.5,528.833 324.5,530.5C 316.833,530.5 309.167,530.5 301.5,530.5C 301.5,519.833 301.5,509.167 301.5,498.5 Z"/></g>
<g><path style="opacity:1" fill="#101c28" d="M 332.5,498.5 C 340.5,498.5 348.5,498.5 356.5,498.5C 356.5,499.833 356.5,501.167 356.5,502.5C 350.5,502.5 344.5,502.5 338.5,502.5C 338.5,505.5 338.5,508.5 338.5,511.5C 343.833,511.5 349.167,511.5 354.5,511.5C 354.5,513.167 354.5,514.833 354.5,516.5C 349.167,516.5 343.833,516.5 338.5,516.5C 338.5,519.5 338.5,522.5 338.5,525.5C 344.833,525.5 351.167,525.5 357.5,525.5C 357.5,527.167 357.5,528.833 357.5,530.5C 349.167,530.5 340.833,530.5 332.5,530.5C 332.5,519.833 332.5,509.167 332.5,498.5 Z"/></g>
<g><path style="opacity:1" fill="#0d1926" d="M 387.5,523.5 C 387.783,524.289 388.283,524.956 389,525.5C 389.5,516.506 389.666,507.506 389.5,498.5C 391.167,498.5 392.833,498.5 394.5,498.5C 394.5,509.167 394.5,519.833 394.5,530.5C 391.223,530.784 388.057,530.451 385,529.5C 381.006,521.359 376.839,513.359 372.5,505.5C 372.217,504.711 371.717,504.044 371,503.5C 370.5,512.494 370.334,521.494 370.5,530.5C 368.833,530.5 367.167,530.5 365.5,530.5C 365.5,519.833 365.5,509.167 365.5,498.5C 368.518,498.335 371.518,498.502 374.5,499C 379.228,506.956 383.561,515.123 387.5,523.5 Z"/></g>
<g><path style="opacity:1" fill="#8e959a" d="M 389.5,498.5 C 389.666,507.506 389.5,516.506 389,525.5C 388.283,524.956 387.783,524.289 387.5,523.5C 388.167,515.167 388.833,506.833 389.5,498.5 Z"/></g>
<g><path style="opacity:1" fill="#061421" d="M 437.5,498.5 C 447.5,498.5 457.5,498.5 467.5,498.5C 467.5,499.833 467.5,501.167 467.5,502.5C 463.167,502.5 458.833,502.5 454.5,502.5C 454.5,511.833 454.5,521.167 454.5,530.5C 452.833,530.5 451.167,530.5 449.5,530.5C 449.5,521.5 449.5,512.5 449.5,503.5C 445.702,502.517 441.702,502.183 437.5,502.5C 437.5,501.167 437.5,499.833 437.5,498.5 Z"/></g>
<g><path style="opacity:1" fill="#14202c" d="M 474.5,498.5 C 476.5,498.5 478.5,498.5 480.5,498.5C 480.5,502.833 480.5,507.167 480.5,511.5C 486.167,511.5 491.833,511.5 497.5,511.5C 497.5,507.167 497.5,502.833 497.5,498.5C 499.5,498.5 501.5,498.5 503.5,498.5C 503.5,509.167 503.5,519.833 503.5,530.5C 501.5,530.5 499.5,530.5 497.5,530.5C 497.5,525.833 497.5,521.167 497.5,516.5C 491.833,516.5 486.167,516.5 480.5,516.5C 480.5,521.167 480.5,525.833 480.5,530.5C 478.5,530.5 476.5,530.5 474.5,530.5C 474.5,519.833 474.5,509.167 474.5,498.5 Z"/></g>
<g><path style="opacity:1" fill="#48525b" d="M 437.5,498.5 C 437.5,499.833 437.5,501.167 437.5,502.5C 441.702,502.183 445.702,502.517 449.5,503.5C 445.167,503.5 440.833,503.5 436.5,503.5C 436.216,501.585 436.549,499.919 437.5,498.5 Z"/></g>
<g><path style="opacity:1" fill="#f1f2f3" d="M 41.5,503.5 C 43.4461,508.396 44.1128,513.729 43.5,519.5C 39.1161,519.826 34.7828,519.492 30.5,518.5C 34.4202,513.648 38.0869,508.648 41.5,503.5 Z"/></g>
<g><path style="opacity:1" fill="#798187" d="M 467.5,502.5 C 463.702,503.483 459.702,503.817 455.5,503.5C 455.827,512.682 455.493,521.682 454.5,530.5C 454.5,521.167 454.5,511.833 454.5,502.5C 458.833,502.5 463.167,502.5 467.5,502.5 Z"/></g>
<g><path style="opacity:1" fill="#949a9f" d="M 372.5,505.5 C 371.833,513.833 371.167,522.167 370.5,530.5C 370.334,521.494 370.5,512.494 371,503.5C 371.717,504.044 372.217,504.711 372.5,505.5 Z"/></g>
<g><path style="opacity:1" fill="#5d666e" d="M 431.5,522.5 C 431.5,519.833 431.5,517.167 431.5,514.5C 426.167,514.5 420.833,514.5 415.5,514.5C 415.5,515.5 415.5,516.5 415.5,517.5C 419.371,517.185 423.038,517.518 426.5,518.5C 422.5,518.5 418.5,518.5 414.5,518.5C 414.5,516.833 414.5,515.167 414.5,513.5C 420.5,513.5 426.5,513.5 432.5,513.5C 432.81,516.713 432.477,519.713 431.5,522.5 Z"/></g>
<g><path style="opacity:1" fill="#848b91" d="M 53.5,523.5 C 52.4324,524.434 51.099,524.768 49.5,524.5C 49.7947,526.735 49.4614,528.735 48.5,530.5C 48.5,528.167 48.5,525.833 48.5,523.5C 50.1667,523.5 51.8333,523.5 53.5,523.5 Z"/></g>
<g><path style="opacity:1" fill="#061421" d="M 59.5,524.5 C 61.5,524.5 63.5,524.5 65.5,524.5C 65.5,526.5 65.5,528.5 65.5,530.5C 63.5,530.5 61.5,530.5 59.5,530.5C 59.5,528.5 59.5,526.5 59.5,524.5 Z"/></g>
<g><path style="opacity:1" fill="#061421" d="M 23.5,554.5 C 185.5,554.5 347.5,554.5 509.5,554.5C 509.5,555.833 509.5,557.167 509.5,558.5C 347.5,558.5 185.5,558.5 23.5,558.5C 23.5,557.167 23.5,555.833 23.5,554.5 Z"/></g>
<g><path style="opacity:1" fill="#121e2a" d="M 1085.5,586.5 C 1090.51,586.334 1095.51,586.501 1100.5,587C 1105.29,589.799 1106.79,593.966 1105,599.5C 1103.83,600.667 1102.67,601.833 1101.5,603C 1107.3,607.286 1107.97,612.286 1103.5,618C 1096.92,619.544 1090.25,619.877 1083.5,619C 1080.04,616.761 1078.7,613.594 1079.5,609.5C 1081.5,609.5 1083.5,609.5 1085.5,609.5C 1085.18,611.722 1085.84,613.556 1087.5,615C 1091.9,615.978 1096.07,615.478 1100,613.5C 1100.76,611.231 1100.59,609.064 1099.5,607C 1095.97,605.663 1092.31,605.163 1088.5,605.5C 1088.5,603.833 1088.5,602.167 1088.5,600.5C 1091.85,600.665 1095.18,600.498 1098.5,600C 1101.17,597.333 1101.17,594.667 1098.5,592C 1094.83,591.333 1091.17,591.333 1087.5,592C 1085.89,593.049 1085.23,594.549 1085.5,596.5C 1083.83,596.5 1082.17,596.5 1080.5,596.5C 1079.58,591.781 1081.25,588.448 1085.5,586.5 Z"/></g>
<g><path style="opacity:1" fill="#0f1b27" d="M 1248.5,586.5 C 1254.24,586.211 1259.91,586.711 1265.5,588C 1269.05,589.677 1270.38,592.51 1269.5,596.5C 1267.83,596.5 1266.17,596.5 1264.5,596.5C 1264.67,595.178 1264.34,594.011 1263.5,593C 1258.95,591.455 1254.29,591.121 1249.5,592C 1246.54,595.488 1247.21,598.155 1251.5,600C 1255.5,600.667 1259.5,601.333 1263.5,602C 1266.03,602.516 1268.2,603.683 1270,605.5C 1270.67,608.833 1270.67,612.167 1270,615.5C 1268.99,617.259 1267.49,618.426 1265.5,619C 1258.83,619.667 1252.17,619.667 1245.5,619C 1242.38,616.592 1241.05,613.426 1241.5,609.5C 1243.5,609.5 1245.5,609.5 1247.5,609.5C 1247.18,611.722 1247.84,613.556 1249.5,615C 1253.83,615.667 1258.17,615.667 1262.5,615C 1266.39,612.474 1266.39,609.808 1262.5,607C 1258.23,605.97 1253.89,605.303 1249.5,605C 1242.89,602.843 1240.72,598.343 1243,591.5C 1244.35,589.251 1246.18,587.584 1248.5,586.5 Z"/></g>
<g><path style="opacity:1" fill="#101c28" d="M 1138.5,587.5 C 1140.6,587.201 1142.6,587.534 1144.5,588.5C 1146.7,597.237 1149.2,605.904 1152,614.5C 1154.66,605.525 1157.16,596.525 1159.5,587.5C 1162.17,587.5 1164.83,587.5 1167.5,587.5C 1169.24,596.318 1171.57,604.985 1174.5,613.5C 1177.57,605.348 1180.07,597.014 1182,588.5C 1183.7,587.594 1185.53,587.261 1187.5,587.5C 1184.5,598.157 1181.5,608.823 1178.5,619.5C 1175.75,619.813 1173.09,619.48 1170.5,618.5C 1168.15,609.445 1165.65,600.445 1163,591.5C 1160.51,600.802 1158.34,610.135 1156.5,619.5C 1153.5,619.5 1150.5,619.5 1147.5,619.5C 1144.9,608.709 1141.9,598.042 1138.5,587.5 Z"/></g>
<g><path style="opacity:1" fill="#0e1a26" d="M 1201.5,587.5 C 1205.03,586.989 1208.2,587.656 1211,589.5C 1214.48,599.137 1217.98,608.804 1221.5,618.5C 1219.6,619.466 1217.6,619.799 1215.5,619.5C 1215.35,613.044 1212.02,610.711 1205.5,612.5C 1198.98,610.711 1195.65,613.044 1195.5,619.5C 1193.4,619.799 1191.4,619.466 1189.5,618.5C 1193.35,608.061 1197.35,597.728 1201.5,587.5 Z"/></g>
<g><path style="opacity:1" fill="#101c28" d="M 1227.5,587.5 C 1229.5,587.5 1231.5,587.5 1233.5,587.5C 1233.5,598.167 1233.5,608.833 1233.5,619.5C 1231.5,619.5 1229.5,619.5 1227.5,619.5C 1227.5,608.833 1227.5,598.167 1227.5,587.5 Z"/></g>
<g><path style="opacity:1" fill="#061421" d="M 1275.5,587.5 C 1285.5,587.5 1295.5,587.5 1305.5,587.5C 1305.5,588.833 1305.5,590.167 1305.5,591.5C 1301.17,591.5 1296.83,591.5 1292.5,591.5C 1292.5,600.833 1292.5,610.167 1292.5,619.5C 1290.83,619.5 1289.17,619.5 1287.5,619.5C 1287.5,610.5 1287.5,601.5 1287.5,592.5C 1283.7,591.517 1279.7,591.183 1275.5,591.5C 1275.5,590.167 1275.5,588.833 1275.5,587.5 Z"/></g>
<g><path style="opacity:1" fill="#48525b" d="M 1275.5,587.5 C 1275.5,588.833 1275.5,590.167 1275.5,591.5C 1279.7,591.183 1283.7,591.517 1287.5,592.5C 1283.17,592.5 1278.83,592.5 1274.5,592.5C 1274.22,590.585 1274.55,588.919 1275.5,587.5 Z"/></g>
<g><path style="opacity:1" fill="#e6e8e9" d="M 1204.5,592.5 C 1205.5,592.414 1206.33,592.748 1207,593.5C 1208.82,598.446 1210.32,603.446 1211.5,608.5C 1207.5,608.5 1203.5,608.5 1199.5,608.5C 1200.37,602.903 1202.03,597.57 1204.5,592.5 Z"/></g>
<g><path style="opacity:1" fill="#798187" d="M 1305.5,591.5 C 1301.7,592.483 1297.7,592.817 1293.5,592.5C 1293.83,601.682 1293.49,610.682 1292.5,619.5C 1292.5,610.167 1292.5,600.833 1292.5,591.5C 1296.83,591.5 1301.17,591.5 1305.5,591.5 Z"/></g>
<g><path style="opacity:1" fill="#061421" d="M 1112.5,613.5 C 1114.5,613.5 1116.5,613.5 1118.5,613.5C 1118.5,615.5 1118.5,617.5 1118.5,619.5C 1116.5,619.5 1114.5,619.5 1112.5,619.5C 1112.5,617.5 1112.5,615.5 1112.5,613.5 Z"/></g>
<g><path style="opacity:1" fill="#ca587f" d="M 668.5,633.5 C 674.705,634.039 678.372,637.372 679.5,643.5C 731.736,643.891 783.903,644.558 836,645.5C 855.435,644.839 874.935,644.172 894.5,643.5C 896.879,638.316 900.879,635.649 906.5,635.5C 915.266,637.445 918.433,642.778 916,651.5C 914.615,654.386 912.449,656.386 909.5,657.5C 901.95,659.109 896.95,656.275 894.5,649C 822.495,648.524 750.495,647.691 678.5,646.5C 677.199,653.629 672.865,656.629 665.5,655.5C 655.302,650.484 653.968,643.651 661.5,635C 663.677,633.798 666.011,633.298 668.5,633.5 Z"/></g>
<g><path style="opacity:1" fill="#17232f" d="M 1319.5,644.5 C 1319.5,645.833 1319.5,647.167 1319.5,648.5C 1216.5,648.5 1113.5,648.5 1010.5,648.5C 992.164,648.667 973.83,648.5 955.5,648C 954.663,646.989 954.33,645.822 954.5,644.5C 1076.17,644.5 1197.83,644.5 1319.5,644.5 Z"/></g>
<g><path style="opacity:1" fill="#e9e9e9" d="M 909.5,657.5 C 911.463,670.458 913.297,683.458 915,696.5C 923.11,727.27 930.11,758.27 936,789.5C 942.472,891.226 936.472,992.226 918,1092.5C 917.833,1097 917.667,1101.5 917.5,1106C 917.877,1127.16 918.044,1148.32 918,1169.5C 920.104,1188 923.104,1206.34 927,1224.5C 927.603,1244.18 927.27,1263.85 926,1283.5C 919.597,1334.32 912.263,1384.99 904,1435.5C 903.333,1443.83 903.333,1452.17 904,1460.5C 905.059,1463.62 906.392,1466.62 908,1469.5C 916.5,1481.33 925,1493.17 933.5,1505C 947.841,1513.67 961.341,1523.51 974,1534.5C 975.076,1536.07 975.909,1537.73 976.5,1539.5C 976.804,1544.07 976.304,1548.74 975,1553.5C 973.245,1554.67 972.245,1556.34 972,1558.5C 969.044,1560.49 966.211,1562.66 963.5,1565C 959.442,1565.77 955.442,1565.6 951.5,1564.5C 947.941,1570.2 942.774,1572.86 936,1572.5C 923.273,1571.39 913.44,1565.56 906.5,1555C 900.067,1552.04 894.234,1548.2 889,1543.5C 886.534,1536.72 882.7,1530.89 877.5,1526C 870.22,1523.34 862.886,1520.67 855.5,1518C 851.698,1515.91 849.198,1512.75 848,1508.5C 847.333,1502.5 847.333,1496.5 848,1490.5C 850.049,1482.8 851.549,1474.97 852.5,1467C 851.568,1462.52 851.401,1458.02 852,1453.5C 857.758,1442.71 859.924,1431.21 858.5,1419C 858.712,1408.08 857.879,1397.25 856,1386.5C 849.609,1354.39 844.276,1322.05 840,1289.5C 837.508,1265.38 838.175,1241.38 842,1217.5C 842.667,1209.5 842.667,1201.5 842,1193.5C 835.869,1171.44 829.536,1149.44 823,1127.5C 821.736,1099.19 821.069,1070.86 821,1042.5C 816.426,1007.39 811.093,972.389 805,937.5C 801.482,919.742 797.649,902.075 793.5,884.5C 789.5,884.5 785.5,884.5 781.5,884.5C 768.979,939.627 759.479,995.294 753,1051.5C 752.446,1069 752.613,1086.5 753.5,1104C 753.718,1113.6 752.884,1123.1 751,1132.5C 746.567,1148.69 741.567,1164.69 736,1180.5C 734.376,1187.68 732.876,1194.85 731.5,1202C 738.324,1241.81 738.157,1281.65 731,1321.5C 725.865,1347.79 721.198,1374.12 717,1400.5C 716.112,1414.54 716.446,1428.54 718,1442.5C 719.924,1446.02 721.591,1449.68 723,1453.5C 723.39,1458.5 723.223,1463.5 722.5,1468.5C 723.992,1475.81 725.492,1483.14 727,1490.5C 731.035,1510.61 722.869,1521.45 702.5,1523C 694.087,1527.42 688.587,1534.25 686,1543.5C 680.766,1548.2 674.933,1552.04 668.5,1555C 659.892,1567.64 647.892,1573.3 632.5,1572C 628.739,1570.24 625.572,1567.74 623,1564.5C 618.82,1565.8 614.653,1565.8 610.5,1564.5C 606.297,1561.93 602.797,1558.59 600,1554.5C 599.67,1551.68 598.836,1549.01 597.5,1546.5C 598.583,1542.99 599.417,1539.32 600,1535.5C 607.776,1529.69 615.276,1523.53 622.5,1517C 630.435,1512.45 637.935,1507.28 645,1501.5C 651.839,1490.49 659.173,1479.82 667,1469.5C 669.184,1466.13 670.517,1462.47 671,1458.5C 671.667,1450.83 671.667,1443.17 671,1435.5C 661.051,1378.14 653.384,1320.47 648,1262.5C 647.333,1249.5 647.333,1236.5 648,1223.5C 651.571,1205.27 654.571,1186.93 657,1168.5C 656.893,1147.49 657.06,1126.49 657.5,1105.5C 657.333,1101.17 657.167,1096.83 657,1092.5C 652.103,1067.67 648.103,1042.67 645,1017.5C 639.714,965.116 636.214,912.616 634.5,860C 634.621,836.072 636.121,812.239 639,788.5C 646.438,755.543 653.772,722.543 661,689.5C 662.697,678.192 664.197,666.858 665.5,655.5C 672.865,656.629 677.199,653.629 678.5,646.5C 750.495,647.691 822.495,648.524 894.5,649C 896.95,656.275 901.95,659.109 909.5,657.5 Z"/></g>
</svg>
