<?xml version="1.0" encoding="utf-8"?>
<!-- Generator: Adobe Illustrator 24.1.0, SVG Export Plug-In . SVG Version: 6.00 Build 0)  -->
<svg version="1.1" id="Layer_1" xmlns="http://www.w3.org/2000/svg" xmlns:xlink="http://www.w3.org/1999/xlink" x="0px" y="0px"
	 viewBox="0 0 1200 1200" style="enable-background:new 0 0 1200 1200;" xml:space="preserve">
<style type="text/css">
	.st0{fill:#EF6238;}
	.st1{fill:url(#SVGID_1_);}
	.st2{fill:#FFFFFF;}
</style>
<rect class="st0" width="1200" height="1200"/>
<linearGradient id="SVGID_1_" gradientUnits="userSpaceOnUse" x1="600" y1="53.3333" x2="600" y2="988.6675">
	<stop  offset="0" style="stop-color:#F68E51"/>
	<stop  offset="1" style="stop-color:#F68E51;stop-opacity:0"/>
</linearGradient>
<rect class="st1" width="1200" height="1200"/>
<g>
	<g>
		<path class="st2" d="M1010.3,356.9v558.7c0,4.3-2.9,7.9-7.1,8.9L602,1016.3c-0.7,0.2-1.3,0.2-2,0.2c-0.7,0-1.4-0.1-2-0.2
			l-401.2-91.8c-4.2-1-7.1-4.6-7.1-8.9V356.9H1010.3 M1058.5,308.7h-917v606.8c0,26.7,18.5,49.9,44.5,55.8l401.2,91.8
			c4.2,1,8.5,1.4,12.8,1.4c4.3,0,8.6-0.5,12.8-1.4l401.2-91.8c26-6,44.5-29.1,44.5-55.8V308.7L1058.5,308.7z"/>
		<g>
			<g>
				<path class="st2" d="M506.9,465.8c-7.4-7.7-17.6-12.1-28.2-12.1H305.4l389,407.6c6.5,6.8,15.5,10.6,24.8,10.6l23.3,0L524,643
					l19-19.9l227.9,238.1c6.6,6.9,15.8,10.8,25.4,10.8h22.4L562,603.1l19-19.9l263.7,276.2c7.6,8,18.2,12.5,29.2,12.5h20.7
					L506.9,465.8z M450.1,487.3h16.7c0.2,0,0.4-0.1,0.5-0.3l5.2-15.9c0.2-0.4,0.8-0.4,0.9,0l5.2,15.9c0.1,0.2,0.3,0.3,0.5,0.3h16.7
					c0.5,0,0.7,0.6,0.3,0.9l-13.5,9.8c-0.2,0.1-0.2,0.3-0.2,0.5l5.2,15.9c0.1,0.4-0.4,0.8-0.8,0.5l-13.5-9.8c-0.2-0.1-0.4-0.1-0.6,0
					l-13.5,9.8c-0.4,0.3-0.9-0.1-0.8-0.5l5.2-15.9c0.1-0.2,0-0.4-0.2-0.5l-13.5-9.8C449.5,487.9,449.7,487.3,450.1,487.3z
					 M427.6,488.1l-13.5,9.8c-0.2,0.1-0.2,0.3-0.2,0.5l5.2,15.9c0.1,0.4-0.4,0.8-0.8,0.5l-13.5-9.8c-0.2-0.1-0.4-0.1-0.6,0
					l-13.5,9.8c-0.4,0.3-0.9-0.1-0.8-0.5l5.2-15.9c0.1-0.2,0-0.4-0.2-0.5l-13.5-9.8c-0.4-0.3-0.2-0.9,0.3-0.9h16.7
					c0.2,0,0.4-0.1,0.5-0.3L404,471c0.2-0.4,0.8-0.4,0.9,0l5.2,15.9c0.1,0.2,0.3,0.3,0.5,0.3h16.7
					C427.8,487.3,428,487.9,427.6,488.1z M479.8,541.7l-13.5,9.8c-0.2,0.1-0.2,0.3-0.2,0.5l5.2,15.9c0.1,0.5-0.4,0.8-0.8,0.5
					l-13.5-9.8c-0.2-0.1-0.4-0.1-0.6,0l-13.5,9.8c-0.4,0.3-0.9-0.1-0.8-0.5l5.2-15.9c0.1-0.2,0-0.4-0.2-0.5l-13.5-9.8
					c-0.4-0.3-0.2-0.9,0.3-0.9h16.7c0.2,0,0.4-0.1,0.5-0.3l5.2-15.9c0.1-0.5,0.8-0.5,0.9,0l5.2,15.9c0.1,0.2,0.3,0.3,0.5,0.3h16.7
					C480,540.8,480.2,541.5,479.8,541.7z M529,594.8l-13.5,9.8c-0.2,0.1-0.2,0.3-0.2,0.5l5.2,15.9c0.1,0.4-0.4,0.8-0.8,0.5
					l-13.5-9.8c-0.2-0.1-0.4-0.1-0.6,0l-13.5,9.8c-0.4,0.3-0.9-0.1-0.8-0.5l5.2-15.9c0.1-0.2,0-0.4-0.2-0.5l-13.5-9.8
					c-0.4-0.3-0.2-0.9,0.3-0.9h16.7c0.2,0,0.4-0.1,0.5-0.3l5.2-15.9c0.2-0.4,0.8-0.4,0.9,0l5.2,15.9c0.1,0.2,0.3,0.3,0.5,0.3h16.7
					C529.2,593.9,529.3,594.5,529,594.8z M548.8,540.7l-13.5,9.8c-0.2,0.1-0.2,0.3-0.2,0.5l5.2,15.9c0.1,0.4-0.4,0.8-0.8,0.5
					l-13.5-9.8c-0.2-0.1-0.4-0.1-0.6,0l-13.5,9.8c-0.4,0.3-0.9-0.1-0.8-0.5l5.2-15.9c0.1-0.2,0-0.4-0.2-0.5l-13.5-9.8
					c-0.4-0.3-0.2-0.9,0.3-0.9h16.7c0.2,0,0.4-0.1,0.5-0.3l5.2-15.9c0.1-0.5,0.8-0.5,0.9,0l5.2,15.9c0.1,0.2,0.3,0.3,0.5,0.3h16.7
					C548.9,539.8,549.1,540.4,548.8,540.7z"/>
				<g>
					<path class="st2" d="M490.6,678.3l-185.2,194h173.3c10.7,0,20.9-4.4,28.2-12.1l68.9-72.2c5.4-5.7,5.4-14.6,0-20.3L490.6,678.3z
						"/>
					<path class="st2" d="M719.8,637.2l174.7-183.1H721.3c-10.7,0-20.9,4.4-28.2,12.1l-78.9,82.6l84.3,88.4
						C704.3,643.3,714,643.3,719.8,637.2z"/>
				</g>
			</g>
		</g>
	</g>
	<g>
		<g>
			<g>
				<path class="st2" d="M1058.5,210.9v-43c0-18-14.6-32.6-32.6-32.6H906.1v108.1h119.9C1043.9,243.5,1058.5,228.9,1058.5,210.9z
					 M1013.3,218.9l-73.7,0.5c-1.6,0-2.6-0.2-3.3-0.6c-0.6-0.4-0.9-1.1-0.9-2.2v-54.3c0-1,0.3-1.7,0.9-2.2c0.6-0.4,1.7-0.6,3.3-0.6
					l73.7,0.5c8.3,0.1,15,6.8,15,15.1v28.7C1028.3,212.1,1021.6,218.8,1013.3,218.9z"/>
				<path class="st2" d="M846.7,243.5h25.8V135.3h-25.8c-2,0-3.6,1.6-3.6,3.6v101C843.2,241.9,844.8,243.5,846.7,243.5z"/>
			</g>
		</g>
		<g>
			<path class="st2" d="M277.7,135.3H156.6c-8.3,0-15.1,6.7-15.1,15.1v77.9c0,8.3,6.7,15.1,15.1,15.1h121.2
				c8.3,0,15.1-6.7,15.1-15.1v-39.3c0-3.5-2.9-6.4-6.4-6.4h-44.8v16.2c0,3.7,3,6.6,6.6,6.6h13.3c1.2,0,2.2,1,2.2,2.2v9.9
				c0,1.2-1,2.2-2.2,2.2l-88.4-0.1c-1.2,0-2.2-1-2.2-2.2v-55.5c0-1.2,1-2.2,2.2-2.2h88.4c1.2,0,2.2,1,2.2,2.2v9.2h29.2v-20.6
				C292.8,142.1,286,135.3,277.7,135.3z"/>
			<path class="st2" d="M448,135.3H325.7c-8.3,0-15.1,6.7-15.1,15.1v78c0,8.3,6.7,15.1,15.1,15.1H448c8.3,0,15.1-6.7,15.1-15.1v-78
				C463,142.1,456.3,135.3,448,135.3z M433.7,216.6c0,1-0.3,1.7-0.8,2.2c-0.5,0.4-1.7,0.6-3.4,0.6h-85.3c-1.6,0-2.6-0.2-3.3-0.6
				c-0.6-0.4-0.9-1.1-0.9-2.2v-54.3c0-1,0.3-1.7,0.9-2.2c0.6-0.4,1.7-0.6,3.3-0.6h85.3c1.7,0,2.8,0.2,3.4,0.6
				c0.5,0.4,0.8,1.1,0.8,2.2V216.6z"/>
			<path class="st2" d="M585,142.1l-36.6,71.1l-0.1,0.2l-0.1-0.2l-36.6-71.1c-2.1-4.1-6.4-6.7-11.1-6.7H472l52.9,102.7
				c1.7,3.2,5,5.3,8.7,5.3h0h29.3h0c3.7,0,7-2,8.7-5.3l52.9-102.7h-28.3C591.4,135.3,587.1,137.9,585,142.1z"/>
			<path class="st2" d="M777.9,135.4h-36.9c-2.8,0-5.4,1.1-7.3,3.1l-28,29.3l-28-29.3c-1.9-2-4.5-3.1-7.3-3.1h-36.9l51.6,54
				l-51.6,54h37.4c2.4,0,4.7-1,6.4-2.7l28.3-29.7l28.3,29.7c1.7,1.8,4,2.7,6.4,2.7h37.4l-51.6-54L777.9,135.4z"/>
		</g>
	</g>
</g>
</svg>
